<svg width="44" height="44" viewBox="0 0 44 44" fill="none" xmlns="http://www.w3.org/2000/svg">
<circle cx="22" cy="22" r="22" fill="#1ED760"/>
<path d="M17.7324 19.3112C21.1366 17.6831 23.8008 14.9203 25.3302 11.4668C24.3435 10.4307 23.0607 9.6907 21.6793 9.24668L20.9393 9C20.8899 9.09867 20.8406 9.24669 20.8406 9.34536C19.6565 12.7002 17.2391 15.4137 13.9829 16.9431C11.7135 18.0285 10.0361 20.0019 9.24668 22.37L9 23.1101C9.09867 23.1594 9.24668 23.2087 9.34535 23.2087C10.2827 23.5541 11.2201 23.9981 12.1082 24.5408C13.3416 22.3207 15.315 20.4459 17.7324 19.3112Z" fill="#201B21"/>
<path d="M32.0403 19.5085C30.2149 22.2713 27.6987 24.4915 24.5906 25.9715C22.0744 27.1556 20.1503 29.3757 19.2623 32.0398L19.0156 32.8785C19.953 33.7173 21.0877 34.3586 22.3211 34.7533L23.0612 35C23.1105 34.9013 23.1598 34.7533 23.1598 34.6546C24.3439 31.2998 26.7614 28.5863 30.0175 27.0569C32.287 25.9715 34.0137 23.9981 34.7538 21.63L35.0004 20.8899C33.9644 20.5939 32.9777 20.1006 32.0403 19.5085Z" fill="#201B21"/>
<path d="M16.7628 30.2315C17.9962 27.2714 20.2657 24.8539 23.1765 23.4725C25.8406 22.1898 28.0607 20.2163 29.5901 17.7989C28.4554 16.7135 27.518 15.4801 26.8273 14C25.0019 17.3548 22.1404 20.0683 18.6376 21.7457C16.6148 22.6831 14.9867 24.3112 14 26.2846C15.0854 27.3207 15.9734 28.6034 16.6641 30.0342C16.6641 30.0342 16.7135 30.1328 16.7628 30.2315Z" fill="#201B21"/>
</svg>
