<svg width="25" height="24" viewBox="0 0 25 24" fill="none" xmlns="http://www.w3.org/2000/svg">
<path d="M13.91 20.79L12.5001 21.7C11.1901 22.51 9.37006 21.6 9.37006 19.98V14.63C9.37006 13.92 8.97006 13.01 8.56006 12.51L4.72003 8.47C4.21003 7.96 3.81006 7.06001 3.81006 6.45001V4.13C3.81006 2.92 4.72008 2.01001 5.83008 2.01001H19.17C20.28 2.01001 21.1901 2.92 21.1901 4.03V6.25C21.1901 7.06 20.6801 8.07001 20.1801 8.57001" stroke="white" stroke-width="1.5" stroke-miterlimit="10" stroke-linecap="round" stroke-linejoin="round"/>
<path d="M17.5802 11.89L14.0401 15.43C13.9001 15.57 13.7701 15.83 13.7401 16.02L13.5501 17.37C13.4801 17.86 13.8202 18.2 14.3102 18.13L15.6601 17.94C15.8501 17.91 16.1202 17.78 16.2502 17.64L19.7901 14.1C20.4001 13.49 20.6901 12.78 19.7901 11.88C18.9001 10.99 18.1902 11.28 17.5802 11.89Z" stroke="white" stroke-width="1.5" stroke-miterlimit="10" stroke-linecap="round" stroke-linejoin="round"/>
<path d="M17.0801 12.39C17.3801 13.47 18.22 14.31 19.3 14.61" stroke="white" stroke-width="1.5" stroke-miterlimit="10" stroke-linecap="round" stroke-linejoin="round"/>
</svg>
